<svg width="21" height="20" viewBox="0 0 21 20" fill="none" xmlns="http://www.w3.org/2000/svg">
<path d="M0.273193 2.85714C0.273193 1.28125 1.55444 0 3.13034 0H17.416C18.9919 0 20.2732 1.28125 20.2732 2.85714V17.1429C20.2732 18.7188 18.9919 20 17.416 20H3.13034C1.55444 20 0.273193 18.7188 0.273193 17.1429V2.85714ZM11.9786 6.06696C11.5812 6.50893 11.6169 7.18304 12.0589 7.58036L14.7419 10L12.0544 12.4196C11.6125 12.817 11.5768 13.4911 11.9741 13.933C12.3714 14.375 13.0455 14.4107 13.4875 14.0134L17.0589 10.7991C17.2866 10.5938 17.4116 10.308 17.4116 10.0045C17.4116 9.70089 17.2821 9.41072 17.0589 9.20982L13.4875 5.99554C13.0455 5.59821 12.3714 5.63393 11.9741 6.07589L11.9786 6.06696ZM8.49194 7.58036C8.93391 7.18304 8.96962 6.50893 8.5723 6.06696C8.17498 5.625 7.50087 5.58929 7.05891 5.98661L3.48748 9.20089C3.2598 9.40625 3.1348 9.69196 3.1348 9.99554C3.1348 10.2991 3.26426 10.5893 3.48748 10.7902L7.05891 14.0045C7.50087 14.4018 8.17498 14.3661 8.5723 13.9241C8.96962 13.4821 8.93391 12.808 8.49194 12.4107L5.80444 10L8.49194 7.58036Z" fill="#7F8290"/>
</svg>
