<svg width="17" height="20" viewBox="0 0 17 20" fill="none" xmlns="http://www.w3.org/2000/svg">
<path d="M15.2687 2.2616H14.6838V16.6304C14.6838 17.585 13.9068 18.362 12.9522 18.362H2.31396V18.8946C2.31396 19.5046 2.80901 19.9996 3.41894 19.9996H15.2666C15.8765 19.9996 16.3715 19.5046 16.3715 18.8946V3.36657C16.3715 2.75664 15.8786 2.2616 15.2687 2.2616Z" fill="#7F8290"/>
<path d="M7.0267 17.738H12.9505C13.5604 17.738 14.0555 17.243 14.0555 16.6331V1.10497C14.0555 0.495044 13.5604 0 12.9505 0H5.05697V0.365539C5.06113 0.403137 5.06324 0.442824 5.06324 0.482511V3.50917C5.06324 4.36767 4.36558 5.06532 3.50708 5.06532H0.480423C0.449091 5.06532 0.41567 5.06324 0.384338 5.06115H0V16.6331C0 17.243 0.495044 17.738 1.10497 17.738H7.0267ZM7.2502 13.9824H3.38802C3.09977 13.9824 2.86583 13.7484 2.86583 13.4602C2.86583 13.1719 3.09977 12.938 3.38802 12.938H7.25229C7.54055 12.938 7.77449 13.1719 7.77449 13.4602C7.77449 13.7484 7.53846 13.9824 7.2502 13.9824ZM11.1145 11.3171H3.38802C3.09977 11.3171 2.86583 11.0831 2.86583 10.7949C2.86583 10.5066 3.09977 10.2727 3.38802 10.2727H11.1145C11.4027 10.2727 11.6367 10.5066 11.6367 10.7949C11.6367 11.0831 11.4027 11.3171 11.1145 11.3171ZM3.38802 7.44237H11.1145C11.4027 7.44237 11.6367 7.67632 11.6367 7.96457C11.6367 8.25282 11.4027 8.48677 11.1145 8.48677H3.38802C3.09977 8.48677 2.86583 8.25282 2.86583 7.96457C2.86583 7.67632 3.09977 7.44237 3.38802 7.44237Z" fill="#7F8290"/>
<path d="M0.481578 4.44139H3.5166C4.02208 4.43721 4.43149 4.02781 4.43567 3.52232V0.48521C4.43567 0.205312 4.2059 0.0194092 3.9678 0.0194092C3.85291 0.0194092 3.73803 0.0611851 3.64194 0.15727L0.151548 3.64764C-0.140883 3.94008 0.0659079 4.44139 0.481578 4.44139Z" fill="#7F8290"/>
</svg>
