<svg width="21" height="20" viewBox="0 0 21 20" fill="none" xmlns="http://www.w3.org/2000/svg">
<path d="M10.3671 0.0996191L1.61625 3.84999C1.06932 4.08438 0.764604 4.67038 0.88571 5.24856C1.00682 5.82674 1.51468 6.24866 2.10849 6.24866V6.56119C2.10849 7.08077 2.52649 7.49878 3.04608 7.49878H18.6726C19.1922 7.49878 19.6102 7.08077 19.6102 6.56119V6.24866C20.204 6.24866 20.7158 5.83065 20.833 5.24856C20.9502 4.66647 20.6455 4.08048 20.1024 3.84999L11.3516 0.0996191C11.039 -0.0332064 10.6796 -0.0332064 10.3671 0.0996191ZM5.85885 8.7489H3.35861V16.4176C3.33517 16.4293 3.31173 16.445 3.28829 16.4606L1.4131 17.7107C0.956029 18.0154 0.748977 18.5858 0.909149 19.1132C1.06932 19.6406 1.55765 20 2.10849 20H19.6102C20.161 20 20.6455 19.6406 20.8056 19.1132C20.9658 18.5858 20.7627 18.0154 20.3017 17.7107L18.4265 16.4606C18.403 16.445 18.3796 16.4332 18.3562 16.4176L18.3601 8.7489H15.8598V16.2496H14.2972V8.7489H11.7969V16.2496H9.92175V8.7489H7.4215V16.2496H5.85885V8.7489ZM10.8593 2.49829C11.1909 2.49829 11.5089 2.63 11.7433 2.86444C11.9778 3.09889 12.1095 3.41686 12.1095 3.74841C12.1095 4.07997 11.9778 4.39794 11.7433 4.63238C11.5089 4.86683 11.1909 4.99853 10.8593 4.99853C10.5278 4.99853 10.2098 4.86683 9.97537 4.63238C9.74093 4.39794 9.60922 4.07997 9.60922 3.74841C9.60922 3.41686 9.74093 3.09889 9.97537 2.86444C10.2098 2.63 10.5278 2.49829 10.8593 2.49829Z" fill="#7F8290"/>
</svg>
